name 900006_13.mot
datacolumns 153
datarows 4
range 0.34166667 0.36666667
endheader

                time	           pelvis_tx	           pelvis_ty	           pelvis_tz	         pelvis_tilt	         pelvis_list	     pelvis_rotation	       hip_flexion_r	     hip_adduction_r	      hip_rotation_r	        knee_angle_r	       ankle_angle_r	    subtalar_angle_r	         mtp_angle_r	       hip_flexion_l	     hip_adduction_l	      hip_rotation_l	        knee_angle_l	       ankle_angle_l	    subtalar_angle_l	         mtp_angle_l	    lumbar_extension	      lumbar_bending	     lumbar_rotation	     ground_force_vx	     ground_force_vy	     ground_force_vz	     ground_force_px	     ground_force_py	     ground_force_pz	     ground_force_vx	     ground_force_vy	     ground_force_vz	     ground_force_px	     ground_force_py	     ground_force_pz	     ground_torque_x	     ground_torque_y	     ground_torque_z	     ground_torque_x	     ground_torque_y	     ground_torque_z	    ground_marker_px	    ground_marker_py	    ground_marker_pz	    ground_marker_px	    ground_marker_py	    ground_marker_pz	    ground_marker_px	    ground_marker_py	    ground_marker_pz	    ground_marker_px	    ground_marker_py	    ground_marker_pz	    ground_marker_px	    ground_marker_py	    ground_marker_pz	    ground_marker_px	    ground_marker_py	    ground_marker_pz	    ground_marker_px	    ground_marker_py	    ground_marker_pz	    ground_marker_px	    ground_marker_py	    ground_marker_pz	    ground_marker_px	    ground_marker_py	    ground_marker_pz	    ground_marker_px	    ground_marker_py	    ground_marker_pz	    ground_marker_px	    ground_marker_py	    ground_marker_pz	    ground_marker_px	    ground_marker_py	    ground_marker_pz	    ground_marker_px	    ground_marker_py	    ground_marker_pz	    ground_marker_px	    ground_marker_py	    ground_marker_pz	    ground_marker_px	    ground_marker_py	    ground_marker_pz	    ground_marker_px	    ground_marker_py	    ground_marker_pz	    ground_marker_px	    ground_marker_py	    ground_marker_pz	    ground_marker_px	    ground_marker_py	    ground_marker_pz	    ground_marker_px	    ground_marker_py	    ground_marker_pz	    ground_marker_px	    ground_marker_py	    ground_marker_pz	    ground_marker_px	    ground_marker_py	    ground_marker_pz	    ground_marker_px	    ground_marker_py	    ground_marker_pz	    ground_marker_px	    ground_marker_py	    ground_marker_pz	    ground_marker_px	    ground_marker_py	    ground_marker_pz	    ground_marker_px	    ground_marker_py	    ground_marker_pz	    ground_marker_px	    ground_marker_py	    ground_marker_pz	    ground_marker_px	    ground_marker_py	    ground_marker_pz	    ground_marker_px	    ground_marker_py	    ground_marker_pz	    ground_marker_px	    ground_marker_py	    ground_marker_pz	    ground_marker_px	    ground_marker_py	    ground_marker_pz	    ground_marker_px	    ground_marker_py	    ground_marker_pz	    ground_marker_px	    ground_marker_py	    ground_marker_pz	    ground_marker_px	    ground_marker_py	    ground_marker_pz	    ground_marker_px	    ground_marker_py	    ground_marker_pz	    ground_marker_px	    ground_marker_py	    ground_marker_pz	    ground_marker_px	    ground_marker_py	    ground_marker_pz	    ground_marker_px	    ground_marker_py	    ground_marker_pz	
          0.34166667	          1.61805892	          0.84400547	         -0.29210326	          3.60782909	         -1.66504288	          1.16079915	         21.08652115	         -0.10226347	         -4.93184948	        -39.51571274	          7.85251665	          0.00000000	          0.00000000	         -4.30662251	          1.78785658	         -1.99047899	         -9.22875309	          9.02939796	          0.00000000	          0.00000000	         -6.43777514	          1.95350671	         -2.49346995	          0.00000000	          0.00000000	          0.00000000	          1.93806482	          0.00000000	         -0.23820306	          0.57389133	        364.95460120	         10.12823183	          1.55379883	          0.00000000	         -0.32345795	          0.00000000	          0.00000000	          0.00000000	          0.00000000	         -1.27864221	          0.00000000	          1.58442485	          0.77114701	         -0.29752201	          1.57796931	          0.76938099	         -0.24048570	          1.59088039	          0.77291304	         -0.35455829	          1.67935789	          0.42610067	         -0.21615180	          1.50923812	          0.43795949	         -0.33570039	          1.60749888	          0.08984237	         -0.22300082	          1.47867668	          0.06577636	         -0.32249209	          1.61805892	          0.84400547	         -0.29210326	          1.62073672	          0.84684873	         -0.18189336	          1.61538124	          0.84116215	         -0.40231317	          1.44311345	          0.87146276	         -0.25103030	          1.44536006	          0.86866015	         -0.30510426	          1.69540882	          0.43502164	         -0.15637636	          1.53674233	          0.41267517	         -0.39427888	          1.69531286	          0.42825422	         -0.27456829	          1.52845061	          0.42931357	         -0.27731174	          1.59751916	          0.09140276	         -0.18688685	          1.47136438	          0.06542686	         -0.35825044	          1.61196923	          0.08461355	         -0.25605083	          1.47426212	          0.06901980	         -0.28905740	          1.61033571	          1.19377649	         -0.30377132	          1.61646652	          1.09181821	         -0.30681467	          1.50562906	          1.26566422	         -0.30055279	          1.68303299	          0.06447149	         -0.20464383	          1.56449115	          0.04445038	         -0.32006729	          1.76178002	          0.61129582	         -0.18670331	          1.65483332	          0.55851877	         -0.41659251	          1.69745862	          0.62634563	         -0.15237960	          1.63979876	          0.60770142	         -0.35185272	          1.70996380	          0.56878000	         -0.15604512	          1.62298453	          0.55107200	         -0.34186250	          1.74527013	          0.18210118	         -0.18159430	          1.48491549	          0.16136213	         -0.45209777	          1.67018843	          0.18297216	         -0.20827915	          1.48457301	          0.15771979	         -0.37322479	          1.61200774	          1.19361567	         -0.24714315	          1.61421692	          1.19430149	         -0.35412517	
          0.34999999	          1.62682784	          0.84310311	         -0.29244784	          3.54326248	         -1.74941981	          1.30428004	         21.46564484	         -0.07172160	         -4.69482470	        -37.08911514	          7.40315771	          0.00000000	          0.00000000	         -5.21243238	          1.71330523	         -2.16731191	         -8.65532207	          9.25421429	          0.00000000	          0.00000000	         -6.48010206	          2.05997753	         -2.74583054	          0.00000000	          0.00000000	          0.00000000	          1.93952979	          0.00000000	         -0.23768587	          2.29417009	        370.26405065	          9.93400038	          1.55747241	          0.00000000	         -0.32319836	          0.00000000	          0.00000000	          0.00000000	          0.00000000	         -1.39950781	          0.00000000	          1.59303808	          0.77027321	         -0.29771987	          1.58673704	          0.76857352	         -0.24066427	          1.59933913	          0.77197295	         -0.35477546	          1.68672204	          0.42613208	         -0.21646048	          1.51303399	          0.43898126	         -0.33571428	          1.63496876	          0.08635221	         -0.22309458	          1.47891939	          0.06594808	         -0.32219830	          1.62682784	          0.84310311	         -0.29244784	          1.62980306	          0.84606051	         -0.18234593	          1.62385261	          0.84014571	         -0.40254974	          1.45197821	          0.87087470	         -0.25064564	          1.45432389	          0.86789519	         -0.30447283	          1.70655286	          0.43500549	         -0.15674609	          1.53907204	          0.41248986	         -0.39426142	          1.70118761	          0.42802152	         -0.27459678	          1.53283453	          0.42811000	         -0.27948552	          1.62496102	          0.08745600	         -0.18697149	          1.47144890	          0.06564937	         -0.35792434	          1.64049661	          0.08004803	         -0.25582412	          1.47454643	          0.06922735	         -0.28874245	          1.61916959	          1.19289362	         -0.30288315	          1.62510157	          1.09092510	         -0.30597198	          1.51471734	          1.26491821	         -0.30010515	          1.71168637	          0.06393600	         -0.20449610	          1.56443489	          0.04439963	         -0.31993404	          1.77107310	          0.61134857	         -0.18805864	          1.65954900	          0.55682540	         -0.41726077	          1.70777702	          0.62619811	         -0.15269589	          1.64559996	          0.60617554	         -0.35189834	          1.71955609	          0.56847787	         -0.15651681	          1.62840044	          0.55007064	         -0.34273422	          1.76816475	          0.18508066	         -0.18189475	          1.48526621	          0.16146286	         -0.45190674	          1.69356859	          0.18177669	         -0.20923863	          1.48512769	          0.15793878	         -0.37290296	          1.62074113	          1.19269907	         -0.24635652	          1.62314057	          1.19343793	         -0.35312521	
          0.35833332	          1.63562250	          0.84206128	         -0.29275194	          3.46444321	         -1.80455804	          1.42395604	         21.81051254	         -0.06257828	         -4.44848967	        -34.61119843	          6.84882164	          0.00000000	          0.00000000	         -6.09501982	          1.66138089	         -2.34646988	         -8.10924244	          9.55719471	          0.00000000	          0.00000000	         -6.45225239	          2.08652401	         -3.00031734	          0.00000000	          0.00000000	          0.00000000	          1.94068604	          0.00000000	         -0.23711667	          4.11217032	        376.45052205	          9.84140821	          1.56110767	          0.00000000	         -0.32293936	          0.00000000	          0.00000000	          0.00000000	          0.00000000	         -1.51163391	          0.00000000	          1.60172129	          0.76926094	         -0.29793388	          1.59553492	          0.76760048	         -0.24086460	          1.60790777	          0.77092141	         -0.35500318	          1.69610941	          0.42503813	         -0.21679270	          1.52427685	          0.43166515	         -0.33573306	          1.66226006	          0.08336771	         -0.22322245	          1.47916520	          0.06614807	         -0.32188833	          1.63562250	          0.84206128	         -0.29275194	          1.63884187	          0.84508210	         -0.18276708	          1.63240325	          0.83904052	         -0.40273678	          1.46085608	          0.87013775	         -0.25023288	          1.46336722	          0.86707151	         -0.30376801	          1.71736217	          0.43471959	         -0.15709035	          1.54153872	          0.41232297	         -0.39427826	          1.71017611	          0.42622808	         -0.27383220	          1.54410219	          0.42043969	         -0.28161868	          1.65227318	          0.08400415	         -0.18708234	          1.47154975	          0.06589703	         -0.35758418	          1.66753435	          0.07724264	         -0.25587797	          1.47489488	          0.06941338	         -0.28841090	          1.62833500	          1.19180870	         -0.30240041	          1.63416660	          1.08983278	         -0.30543861	          1.52357519	          1.26418769	         -0.29947582	          1.74009442	          0.06379658	         -0.20445713	          1.56449556	          0.04444302	         -0.31985739	          1.78026247	          0.61106062	         -0.18932138	          1.66436720	          0.55508322	         -0.41790819	          1.71691990	          0.62530267	         -0.15365541	          1.64764047	          0.60419798	         -0.35165915	          1.72874522	          0.56786269	         -0.15702276	          1.63364494	          0.54843152	         -0.34331012	          1.79061842	          0.18836202	         -0.18229142	          1.48569894	          0.16159783	         -0.45172274	          1.71637130	          0.17972699	         -0.20812428	          1.48580503	          0.15810560	         -0.37255239	          1.62977970	          1.19163334	         -0.24586762	          1.63241899	          1.19233036	         -0.35263643	
          0.36666667	          1.64445806	          0.84089792	         -0.29299971	          3.37331867	         -1.83414865	          1.52348828	         22.12668610	         -0.06928733	         -4.21159077	        -32.11130905	          6.23272896	          0.00000000	          0.00000000	         -6.95511770	          1.62747562	         -2.51675344	         -7.59570313	          9.91679573	          0.00000000	          0.00000000	         -6.37658691	          2.12057829	         -3.33192301	          0.00000000	          0.00000000	          0.00000000	          1.94160083	          0.00000000	         -0.23652905	          6.05937365	        383.31159489	          9.83287042	          1.56467773	          0.00000000	         -0.32265460	          0.00000000	          0.00000000	          0.00000000	          0.00000000	         -1.60803406	          0.00000000	          1.61045051	          0.76810253	         -0.29815799	          1.60434532	          0.76645857	         -0.24107951	          1.61655581	          0.76974642	         -0.35523650	          1.70677447	          0.42384306	         -0.21711230	          1.52435541	          0.43335435	         -0.33589450	          1.68926108	          0.08087485	         -0.22335544	          1.47941422	          0.06637536	         -0.32156730	          1.64445806	          0.84089792	         -0.29299971	          1.64787662	          0.84393817	         -0.18312125	          1.64103937	          0.83785766	         -0.40287817	          1.46974230	          0.86927646	         -0.24979547	          1.47245812	          0.86619508	         -0.30302200	          1.72789276	          0.43419063	         -0.15740786	          1.54417074	          0.41217127	         -0.39432004	          1.72076797	          0.42473626	         -0.27371088	          1.54448736	          0.42210653	         -0.28041810	          1.67935658	          0.08104356	         -0.18718746	          1.47167230	          0.06616978	         -0.35723621	          1.69397509	          0.07631864	         -0.25635016	          1.47520339	          0.06965160	         -0.28807178	          1.63756204	          1.19038546	         -0.30253690	          1.64335907	          1.08840728	         -0.30556381	          1.53225648	          1.26316810	         -0.29902232	          1.76813912	          0.06408069	         -0.20456821	          1.56465495	          0.04454490	         -0.31981513	          1.78933167	          0.61042905	         -0.19046606	          1.66932476	          0.55329341	         -0.41851377	          1.72541881	          0.62434566	         -0.15459412	          1.65416324	          0.60217404	         -0.35193756	          1.73780775	          0.56733638	         -0.15765075	          1.63804364	          0.54618651	         -0.34310991	          1.81256008	          0.19191885	         -0.18280710	          1.48623705	          0.16176544	         -0.45155603	          1.73872244	          0.18050146	         -0.20771173	          1.48651624	          0.15831181	         -0.37220991	          1.63878572	          1.19020379	         -0.24613780	          1.64184201	          1.19090998	         -0.35261717	
